<svg width="106" height="95" viewBox="0 0 106 95" fill="none" xmlns="http://www.w3.org/2000/svg">
<path d="M80.5011 67.4765L70.7059 64.5375L67.1895 58.2053C70.3574 55.3022 72.5569 51.4611 73.2986 47.4545L73.7372 45.0879H77.4877C80.8968 45.0879 83.6703 42.5908 83.6703 39.5215V27.832C83.6703 12.4854 69.8028 0 52.7576 0C35.6686 0 21.8449 12.4496 21.8449 27.832V39.5215C21.8449 41.9403 23.568 44.0028 25.9666 44.7687V46.9434C25.9666 50.0127 28.7401 52.5098 32.1491 52.5098H33.959C34.8523 54.2571 36.0087 55.8754 37.4158 57.3292C37.7076 57.6312 38.012 57.924 38.3238 58.2088L34.8093 64.5375L25.0139 67.4767C13.6246 70.896 5.35815 81.6909 5.35815 93.1445C5.35815 94.1693 6.28079 95 7.419 95H98.0962C99.2342 95 100.157 94.1693 100.157 93.1445C100.157 81.6909 91.8908 70.896 80.5011 67.4765ZM79.5486 39.5215C79.5486 40.5446 78.6241 41.377 77.4877 41.377H74.3425C74.8663 37.7235 75.2154 33.8358 75.3558 30.0066C75.3599 29.8987 75.3632 29.7936 75.3669 29.6875H79.5486V39.5215ZM28.0274 41.377C26.8911 41.377 25.9666 40.5446 25.9666 39.5215V29.6875H30.1497C30.1565 29.881 30.1637 30.0755 30.1718 30.2712C30.172 30.2779 30.1724 30.2844 30.1726 30.2911C30.1726 30.2916 30.1726 30.2922 30.1726 30.2928C30.3168 34.017 30.6614 37.8039 31.1733 41.3768H28.0274V41.377ZM32.1491 48.7988C31.0128 48.7988 30.0883 47.9665 30.0883 46.9434V45.0879H31.7778L32.2163 47.4553C32.3 47.9052 32.4028 48.3535 32.5217 48.7988H32.1491ZM30.0918 25.9766H26.0449C27.0887 13.541 38.6155 3.71094 52.7576 3.71094C66.8369 3.71094 78.4143 13.5397 79.47 25.9766H75.4236C75.2752 15.7294 66.007 7.42188 54.6022 7.42188H50.9133C39.5088 7.42188 30.24 15.7294 30.0918 25.9766ZM50.9131 11.1328H54.602C63.8365 11.1328 71.3105 17.9333 71.3052 26.2382C71.3052 26.8221 71.3 27.3305 71.2891 27.7931C71.2891 27.799 71.2889 27.8051 71.2889 27.8113L68.7112 27.4797C61.7085 26.5794 55.0964 23.6029 50.0931 19.0982C49.7065 18.7503 49.1824 18.5547 48.6359 18.5547C43.1013 18.5547 37.8033 20.825 34.3011 24.6607C35.1642 17.1054 42.2582 11.1328 50.9131 11.1328ZM36.7943 48.7988C35.7626 45.7089 34.5822 36.6171 34.3213 30.7909L37.095 27.4611C39.6424 24.4041 43.6056 22.5046 47.8215 22.2866C53.3686 27.0396 60.5449 30.1783 68.1284 31.1531L71.1624 31.5435C70.9596 35.4187 70.5452 39.3074 69.9514 42.8838C69.9512 42.8849 69.951 42.8862 69.9508 42.8875C69.762 44.0373 69.6132 44.7773 69.2332 46.8441C68.1418 52.738 63.2572 58.0678 56.809 59.5194C54.1553 60.1159 51.3595 60.1157 48.7072 59.5194C44.6809 58.6131 40.9891 56.1049 38.6066 52.5098H42.8078C43.6585 54.6693 45.9492 56.2207 48.6359 56.2207H52.7576C56.1734 56.2207 58.9401 53.7299 58.9401 50.6543C58.9401 47.585 56.1666 45.0879 52.7576 45.0879H48.6359C45.8894 45.0879 43.6326 46.6851 42.8043 48.7988H36.7943ZM48.4626 63.2745C49.8761 63.5426 51.3173 63.6797 52.7576 63.6797C53.8851 63.6797 55.0128 63.5947 56.1277 63.4299L52.4862 66.8973L48.4626 63.2745ZM49.6529 69.5947L43.1163 75.8184C41.3168 72.7171 39.7706 69.4895 38.5023 66.1853L40.957 61.7652L49.6529 69.5947ZM64.2089 61.1366L67.0125 66.1851C65.7421 69.4949 64.1955 72.7236 62.3978 75.8211L55.4016 69.5222L64.2089 61.1366ZM46.5751 50.6543C46.5751 49.6299 47.4979 48.7988 48.6359 48.7988H52.7576C53.8939 48.7988 54.8184 49.6312 54.8184 50.6543C54.8184 51.6789 53.8954 52.5098 52.7576 52.5098H48.6359C47.4995 52.5098 46.5751 51.6774 46.5751 50.6543ZM9.56228 91.2891C10.379 82.0973 17.1734 73.7424 26.3174 70.9971L34.9923 68.3942C36.5816 72.351 38.5505 76.1969 40.8581 79.8499C40.862 79.8562 40.8657 79.8625 40.8696 79.8687C40.8696 79.8688 40.8698 79.8688 40.8698 79.869C42.5558 82.5389 44.4534 85.1478 46.5108 87.6247L49.046 91.2891H9.56228ZM52.7576 89.6351L49.9627 85.5952C49.9313 85.5499 49.898 85.5059 49.8625 85.4633C48.1936 83.459 46.6369 81.3629 45.219 79.2174L52.5686 72.2197L60.3129 79.1921C58.8855 81.3532 57.3234 83.4581 55.6531 85.4629C55.5521 85.5841 55.6953 85.3931 52.7576 89.6351ZM56.4692 91.2891L59.0042 87.6249C61.0706 85.1386 62.9818 82.5086 64.6847 79.8074C64.695 79.7911 64.7047 79.7744 64.715 79.7581C64.7163 79.756 64.7175 79.7542 64.7187 79.7521C66.997 76.134 68.9453 72.3215 70.5229 68.3942L79.1976 70.9971C88.3418 73.7424 95.1362 82.0973 95.9529 91.2891H56.4692Z" fill="white"/>
</svg>
