<svg width="95" height="95" viewBox="0 0 95 95" fill="none" xmlns="http://www.w3.org/2000/svg">
<path d="M94.0077 39.8525C93.3974 39.5317 92.6597 39.5759 92.0921 39.9668L75.2348 51.5761V41.4948C75.2348 40.8055 74.8526 40.1728 74.2423 39.8522C73.6321 39.5317 72.8943 39.5759 72.3267 39.9667L55.4748 51.5754V41.4946C55.4748 40.8053 55.0926 40.1726 54.4823 39.852C53.8721 39.5315 53.1343 39.5757 52.5667 39.9665L35.7148 51.5752V44.9067C35.7148 43.8819 34.8841 43.0512 33.8593 43.0512H30.408V24.5123C30.408 21.9729 28.344 19.9072 25.8072 19.9072H19.7103V14.5838C20.6328 14.7575 21.5459 14.8468 22.44 14.8468C24.6814 14.8468 26.8065 14.3027 28.6761 13.2234C31.9523 11.3319 34.1961 7.93941 34.9943 3.6709C35.1624 2.77156 34.6501 1.8839 33.7872 1.57979C29.6869 0.134935 25.6242 0.381527 22.3471 2.27355C20.4942 3.34341 18.9724 4.8944 17.855 6.81221C16.7376 4.89366 15.216 3.3423 13.3633 2.27262C10.088 0.381341 6.02675 0.135491 1.92783 1.57997C1.06504 1.88409 0.552559 2.77174 0.720664 3.67109C1.51889 7.94071 3.76252 11.3336 7.03798 13.2247C8.90644 14.3033 11.0298 14.8468 13.2701 14.8468C14.1641 14.8468 15.077 14.7575 15.9992 14.5838V19.9077H9.90765C7.36788 19.9077 5.30145 21.9736 5.30145 24.5128V43.0517H1.85547C0.830693 43.0517 0 43.8824 0 44.9072V92.494C0 93.5188 0.830693 94.3495 1.85547 94.3495H93.1445C94.1693 94.3495 95 93.5188 95 92.494V41.495C95 40.8057 94.6178 40.1732 94.0077 39.8525ZM24.2027 5.48741C26.1137 4.38396 28.4588 4.08987 30.9344 4.62072C30.1566 7.02577 28.7304 8.90722 26.8208 10.0097C24.9099 11.1132 22.5651 11.4075 20.0906 10.8772C20.8681 8.47137 22.2936 6.58955 24.2027 5.48741ZM8.89345 10.0109C6.98417 8.90852 5.55843 7.0267 4.78043 4.62072C7.25507 4.09024 9.59853 4.38396 11.5078 5.48629C13.4163 6.58826 14.8415 8.47044 15.6192 10.8772C13.146 11.4069 10.8029 11.1132 8.89345 10.0109ZM9.90765 23.6187H25.8072C26.2896 23.6187 26.697 24.0282 26.697 24.5128V28.7299H9.01257V24.5128C9.01257 24.0198 9.41409 23.6187 9.90765 23.6187ZM9.01257 32.4409H26.6972V43.0517H9.01257V32.4409ZM22.7 90.6386H13.015V72.0575C13.015 72.0342 13.038 72.015 13.053 72.015H22.6568C22.6746 72.015 22.7 72.0371 22.7 72.0575V90.6386ZM32.0041 90.6386H26.4109V72.0575C26.4109 69.988 24.7267 68.3041 22.6568 68.3041H13.053C10.9859 68.3041 9.30406 69.988 9.30406 72.0575V90.6386H3.71094V46.7627H32.0041V90.6386ZM91.2891 81.3852H71.3387C70.3139 81.3852 69.4832 82.2159 69.4832 83.2406C69.4832 84.2654 70.3139 85.0961 71.3387 85.0961H91.2891V90.6386H35.715V85.0961H54.6714C55.6962 85.0961 56.5269 84.2654 56.5269 83.2406C56.5269 82.2159 55.6962 81.3852 54.6714 81.3852H35.715V56.082L51.764 45.0263V55.1071C51.764 55.7964 52.1463 56.4289 52.7565 56.7497C53.367 57.0704 54.1047 57.0262 54.6721 56.6353L71.524 45.0265V55.1073C71.524 55.7966 71.9063 56.4291 72.5164 56.7497C73.1264 57.0704 73.8642 57.0262 74.4319 56.6354L91.2891 45.0258V81.3852Z" fill="white"/>
<path d="M51.1262 62.8311H41.3276C40.3029 62.8311 39.4722 63.6617 39.4722 64.6865V74.4867C39.4722 75.5115 40.3029 76.3422 41.3276 76.3422H51.1262C52.151 76.3422 52.9816 75.5115 52.9816 74.4867V64.6865C52.9816 63.6617 52.151 62.8311 51.1262 62.8311ZM49.2707 72.6311H43.1831V66.5418H49.2707V72.6311Z" fill="white"/>
<path d="M68.3984 62.8311H58.6001C57.5753 62.8311 56.7446 63.6617 56.7446 64.6865V74.4867C56.7446 75.5115 57.5753 76.3422 58.6001 76.3422H68.3984C69.4232 76.3422 70.2539 75.5115 70.2539 74.4867V64.6865C70.2539 63.6617 69.4232 62.8311 68.3984 62.8311ZM66.543 72.6311H60.4556V66.5418H66.543V72.6311Z" fill="white"/>
<path d="M74.0166 74.4865C74.0166 75.5113 74.8473 76.342 75.8721 76.342H85.6704C86.6952 76.342 87.5259 75.5113 87.5259 74.4865V64.6863C87.5259 63.6615 86.6952 62.8308 85.6704 62.8308H75.8721C74.8473 62.8308 74.0166 63.6615 74.0166 64.6863V74.4865ZM77.7275 66.5419H83.815V72.6312H77.7275V66.5419Z" fill="white"/>
<path d="M63.0073 81.3851C61.9825 81.3851 61.1519 82.2158 61.1519 83.2406C61.1519 84.2654 61.9825 85.0961 63.0073 85.0961H63.0125C64.0373 85.0961 64.8654 84.2654 64.8654 83.2406C64.8654 82.2158 64.0321 81.3851 63.0073 81.3851Z" fill="white"/>
</svg>
