<svg width="97" height="95" viewBox="0 0 97 95" fill="none" xmlns="http://www.w3.org/2000/svg">
<g clip-path="url(#clip0)">
<path d="M48.4112 0C43.0727 0 38.7451 4.25323 38.7451 9.5C38.7451 14.7468 43.0727 19 48.4112 19C53.7475 18.9949 58.0721 14.7446 58.0773 9.5C58.0773 4.25323 53.7497 0 48.4112 0ZM48.4112 15.8333C44.8523 15.8333 41.9671 12.9978 41.9671 9.5C41.9671 6.00222 44.8523 3.16667 48.4112 3.16667C51.9701 3.16667 54.8553 6.00222 54.8553 9.5C54.8553 12.9978 51.9701 15.8333 48.4112 15.8333Z" fill="white"/>
<path d="M54.8548 20.5834H54.4746L54.1347 20.7496C50.5298 22.5137 46.2917 22.5137 42.6868 20.7496L42.3469 20.5834H41.9667C37.5203 20.5885 33.9169 24.13 33.9116 28.5V38C33.9116 40.6234 36.0754 42.75 38.7447 42.75H58.0768C60.7461 42.75 62.9099 40.6234 62.9099 38V28.5C62.9046 24.13 59.3012 20.5885 54.8548 20.5834ZM59.6878 38C59.6878 38.8744 58.9665 39.5834 58.0768 39.5834H38.7447C37.855 39.5834 37.1336 38.8744 37.1336 38V28.5C37.1341 26.0079 39.0941 23.9396 41.6235 23.7627C45.928 25.726 50.8937 25.726 55.198 23.7627C57.7272 23.9396 59.6874 26.0079 59.6878 28.5V38Z" fill="white"/>
<path d="M82.2423 52.25C76.9038 52.25 72.5762 56.5032 72.5762 61.75C72.5762 66.9968 76.9038 71.25 82.2423 71.25C87.5807 71.25 91.9083 66.9968 91.9083 61.75C91.9031 56.5054 87.5785 52.2551 82.2423 52.25ZM82.2423 68.0833C78.6833 68.0833 75.7982 65.2478 75.7982 61.75C75.7982 58.2522 78.6833 55.4167 82.2423 55.4167C85.8012 55.4167 88.6863 58.2522 88.6863 61.75C88.6863 65.2478 85.8012 68.0833 82.2423 68.0833Z" fill="white"/>
<path d="M88.6863 72.8334H88.3061L87.9662 72.9917C84.3614 74.7555 80.1232 74.7555 76.5184 72.9917L76.1784 72.8334H75.7982C71.3518 72.8385 67.7484 76.38 67.7432 80.75V90.25C67.7432 92.8734 69.907 95 72.5762 95H91.9084C94.5776 95 96.7414 92.8734 96.7414 90.25V80.75C96.7362 76.38 93.1327 72.8385 88.6863 72.8334ZM93.5194 90.25C93.5194 91.1244 92.7981 91.8334 91.9084 91.8334H72.5762C71.6865 91.8334 70.9652 91.1244 70.9652 90.25V80.75C70.9656 78.2579 72.9256 76.1896 75.4551 76.0127C79.7595 77.976 84.7251 77.976 89.0295 76.0127C91.559 76.1896 93.519 78.2579 93.5194 80.75V90.25Z" fill="white"/>
<path d="M14.5797 52.25C9.24116 52.25 4.91357 56.5032 4.91357 61.75C4.91357 66.9968 9.24116 71.25 14.5797 71.25C19.9182 71.25 24.2457 66.9968 24.2457 61.75C24.2405 56.5054 19.9159 52.2551 14.5797 52.25ZM14.5797 68.0833C11.0207 68.0833 8.1356 65.2478 8.1356 61.75C8.1356 58.2522 11.0207 55.4167 14.5797 55.4167C18.1386 55.4167 21.0237 58.2522 21.0237 61.75C21.0237 65.2478 18.1386 68.0833 14.5797 68.0833Z" fill="white"/>
<path d="M21.0238 72.8334H20.6436L20.3036 72.9917C16.6988 74.7555 12.4606 74.7555 8.85576 72.9917L8.51584 72.8334H8.13564C3.68924 72.8385 0.0858022 76.38 0.0805664 80.75V90.25C0.0805664 92.8734 2.24436 95 4.91361 95H24.2458C26.915 95 29.0788 92.8734 29.0788 90.25V80.75C29.0736 76.38 25.4701 72.8385 21.0238 72.8334ZM25.8568 90.25C25.8568 91.1244 25.1355 91.8334 24.2458 91.8334H4.91361C4.02393 91.8334 3.30259 91.1244 3.30259 90.25V80.75C3.303 78.2579 5.263 76.1896 7.79249 76.0127C12.0969 77.976 17.0625 77.976 21.3669 76.0127C23.8964 76.1896 25.8564 78.2579 25.8568 80.75V90.25Z" fill="white"/>
<path d="M64.3946 80.4088C64.3938 80.407 64.393 80.4052 64.3922 80.4032C64.0434 79.5987 63.0971 79.2244 62.2787 79.5672C55.004 82.5637 46.9248 83.1103 39.3008 81.122L40.8087 80.6866C41.663 80.4408 42.1527 79.5613 41.9026 78.7217C41.6525 77.8821 40.7576 77.4008 39.9034 77.6466L33.4593 79.5039C33.4351 79.5039 33.4174 79.5308 33.3949 79.5387C33.2456 79.5933 33.1055 79.6697 32.9792 79.7651C32.9232 79.7948 32.8695 79.8281 32.8181 79.8649C32.6482 80.0139 32.5134 80.1976 32.4234 80.4032C32.336 80.6102 32.2943 80.8331 32.301 81.0571C32.3402 81.2715 32.394 81.483 32.4621 81.6905C32.4717 81.7126 32.4621 81.738 32.4798 81.7601L35.7018 87.8195C36.1138 88.5952 37.0875 88.8958 37.8767 88.4909C38.6659 88.0859 38.9718 87.129 38.5598 86.3534L37.2484 83.8897C45.9104 86.4488 55.2102 85.9514 63.5385 82.4837C64.3577 82.1431 64.7412 81.2141 64.3946 80.4088Z" fill="white"/>
<path d="M91.4361 41.6306C90.807 41.0125 89.7872 41.0125 89.1581 41.6306L86.8785 43.8711C85.5446 30.003 76.5859 17.9685 63.5413 12.5211C62.7227 12.1783 61.7765 12.5525 61.4277 13.3571C61.0789 14.1616 61.4597 15.0916 62.2783 15.4344C73.9803 20.3223 82.1147 31.0043 83.5872 43.4166L81.77 41.6306C81.13 41.023 80.1102 41.0404 79.492 41.6694C78.8891 42.283 78.8891 43.2557 79.492 43.8695L84.325 48.6195C84.9533 49.2386 85.9735 49.2399 86.6034 48.6222C86.6044 48.6213 86.6054 48.6203 86.6062 48.6195L91.4393 43.8695C92.0674 43.2504 92.066 42.2481 91.4361 41.6306Z" fill="white"/>
<path d="M35.4761 13.7101C35.4709 13.6177 35.457 13.526 35.4342 13.4362C35.4342 13.4219 35.4165 13.4124 35.41 13.3966C35.4036 13.3807 35.41 13.3697 35.41 13.357C35.3661 13.28 35.3154 13.2068 35.2586 13.1385C35.2065 13.0457 35.1448 12.9582 35.075 12.8772C34.9797 12.7943 34.8742 12.7237 34.7608 12.6667C34.7042 12.6194 34.6438 12.5764 34.5804 12.5384L28.1363 9.64566C27.3133 9.31356 26.3721 9.70009 26.0341 10.509C25.7146 11.2739 26.0478 12.1519 26.7992 12.5242L30.1356 14.0236C17.5751 20.6302 9.73753 33.4986 9.74659 47.5C9.74659 48.3744 10.4679 49.0833 11.3576 49.0833C12.2473 49.0833 12.9686 48.3744 12.9686 47.5C12.9606 35.1712 19.5941 23.7595 30.4046 17.5053L29.2399 19.8977C28.8558 20.6849 29.1923 21.6289 29.9922 22.0083C30.2095 22.1126 30.4479 22.1669 30.6898 22.1667C31.3084 22.1659 31.8719 21.8169 32.1397 21.2689L35.3617 14.6617C35.3617 14.6458 35.3617 14.6284 35.3746 14.6126C35.4165 14.5043 35.4457 14.3917 35.4616 14.2769C35.4892 14.1916 35.5097 14.1043 35.5228 14.0157C35.5174 13.9125 35.5019 13.8102 35.4761 13.7101Z" fill="white"/>
</g>
<defs>
<clipPath id="clip0">
<rect width="96.6608" height="95" fill="white" transform="translate(0.0805664)"/>
</clipPath>
</defs>
</svg>
