<svg width="127" height="127" viewBox="0 0 127 127" fill="none" xmlns="http://www.w3.org/2000/svg">
<path d="M125.5 21.5C124.473 21.5 123.276 18.8707 123.276 19.8978V92.2174C121.222 91.107 118.155 89.5334 115.949 88.8096C115.026 88.5073 112.576 87.7041 111.487 89.5334C110.689 90.8745 110.574 93.0371 111.194 95.0438C112.548 99.4282 115.525 99.2732 116.812 100.307C117.923 101.198 117.978 103.239 117.873 105.312C117.866 105.443 117.856 105.669 117.833 105.795C117.583 105.928 116.906 106.024 116.638 106.062C115.677 106.198 110.448 107.27 109.5 107.5C108.502 107.741 109.259 108.001 109.5 109C109.74 109.995 109.669 111.201 110.5 111C111.331 110.799 116.317 109.865 117.16 109.745C119.975 109.347 121.446 108.339 121.59 105.5C121.686 103.588 121.887 99.6094 119.142 97.4051C117.056 95.7308 115.535 96.4904 114.749 93.9469C114.55 93.3016 114.5 92.7028 114.522 92.2455C116.466 92.8259 120.733 94.9672 124.196 96.9943C125.434 97.719 126.997 96.8257 126.997 95.3897V19.8978C126.998 18.8707 126.527 21.5 125.5 21.5Z" fill="white"/>
<path d="M108.5 108C106 110 102.184 112.352 101.405 112.352H101.4C99.9789 112.34 99.0458 110.222 91.7545 112.551C90.9387 112.811 87.6104 113.921 86.5329 113.392C86.0795 113.169 84.2268 110.841 83.8703 109.549C83.6862 108.882 83.7966 108.162 84.128 107.873C85.032 107.081 86.2403 107.528 88.2867 104.138C88.5793 103.655 88.8545 103.198 89.1558 102.872C90.1432 101.802 91.9725 101.487 93.9201 101.234C95.3183 101.053 96.4432 100.941 97.4364 100.843C99.7715 100.61 101.459 100.444 104.307 99.6385C105.92 99.1821 106.996 98.034 107.335 96.4042C107.682 94.7405 107.154 92.3967 106.27 91.6729C103.611 89.4986 101.107 90.4249 99.6097 90.9782C99.3016 91.0925 98.8384 91.264 98.6786 91.2746C98.5507 90.9956 98.5041 90.8202 98.4877 90.7272C99.0816 90.3067 103.346 88.1886 104.043 84.2469C104.422 82.094 103.582 79.2472 101.177 79.0806C99.2289 78.9469 96.7814 80.628 95.7582 81.5359C94.5896 82.5746 93.6769 83.7383 92.6896 84.6587C91.9357 84.0086 90.9687 83.6491 89.9513 83.6724C87.5988 83.7247 86.9835 85.3554 86.7209 86.0511C86.719 86.056 86.717 86.0598 86.716 86.0647C86.1463 85.8447 84.7646 85.3544 83.5767 86.5404C82.1514 87.9628 82.133 89.3203 80.8055 96.7831C80.5265 97.7258 77.6826 100.56 76.5548 101.19C75.5956 101.187 74.0859 101.168 73.3903 101.199C70.3362 101.332 69.313 103.632 70.1404 105.312L71.902 108.888C71.8855 108.889 71.869 108.889 71.8525 108.889C71.1181 108.898 70.4049 109.046 69.7306 109.33C69.7257 109.289 69.7209 109.25 69.716 109.215C69.2006 105.266 66.9168 105.918 66.3529 104.059C66.2385 103.684 66.3005 103.095 66.3654 102.472C66.4885 101.296 66.6406 99.8352 65.7608 98.468C65.1514 97.5204 64.2561 96.9953 63.603 96.6116L53.5173 90.6913C50.8586 89.1314 47.6233 91.4791 48.2657 94.4906C48.4895 95.5399 48.9827 96.6532 49.6532 97.6251C50.3557 98.6434 50.8731 100.197 51.4215 101.841C54.0919 109.854 56.273 108.985 57.3979 110.604C52.6976 112.04 54.3051 115.089 50.6764 115.939C49.9565 116.108 49.4643 116.131 49.2356 116.02C48.9972 115.886 48.5322 115.493 48.0797 115.057C49.4982 114.347 50.5669 113.275 51.6628 112.587C52.2025 112.248 52.531 111.657 52.5339 111.02C52.5503 107.338 51.5785 105.946 50.4545 104.336C47.5526 100.18 47.1194 96.0467 44.7126 92.7009C43.4772 90.984 41.1518 90.3435 39.1829 91.1787C37.025 92.0934 34.6715 92.4374 32.379 92.1738C30.5932 91.9694 27.605 91.6264 26.2543 94.1117C25.7883 94.9692 25.765 95.8364 25.6429 96.287C24.7903 96.5612 20.4359 95.9323 17.3808 101.154C16.7336 102.26 16.2229 103.508 15.7724 105.082C15.471 106.137 14.4246 105.606 12.1669 105.193C10.9926 104.979 9.88219 104.776 8.81442 104.469C6.68276 103.855 4.24588 102.444 3.80211 100.319C3.54631 99.093 3.9552 97.5979 4.31565 96.2792L6.47541 88.3746C6.5975 87.925 7.08487 87.6847 7.51314 87.8621L13.1582 90.2059C14.91 90.9336 19.0125 92.637 22.0298 90.2359C23.6886 88.9163 25.2592 86.1664 23.3262 80.5601C22.5346 78.2657 21.8476 75.918 22.8388 74.5944C23.5489 73.6462 31.0631 74.2733 33 74.5001C34.0213 74.6202 32.8808 74.5213 33 73.5001C33.1192 72.4798 34.0213 71.1192 33 71.0001C30.5224 70.7094 22 69.5001 20.0744 72.0984C20.0473 72.1284 20.0212 72.1594 19.995 72.1905C17.5465 75.2155 18.9621 79.3199 19.808 81.7732C20.2537 83.0648 21.1364 86.1926 19.713 87.3243C18.561 88.2409 16.3673 87.5094 14.5844 86.7701L8.93942 84.4262C6.44247 83.3904 3.5996 84.7828 2.88549 87.395L0.725733 95.2986C0.278084 96.9371 -0.279055 98.9777 0.159874 101.079C0.824565 104.259 3.67518 106.863 7.78638 108.045C9.85506 108.64 11.9286 108.876 13.851 109.322C16.2588 109.879 18.6734 108.467 19.3497 106.106C19.7111 104.84 20.1064 103.864 20.5928 103.034C23.2797 98.4409 26.514 101.385 28.6263 98.5475C29.4179 97.4836 29.3646 96.2279 29.5197 95.8916C29.8442 95.6291 31.3781 95.8044 31.9546 95.8713C34.8856 96.2075 37.8874 95.7696 40.6363 94.6039C41.019 94.4421 41.4638 94.5555 41.6934 94.8743C43.7204 97.6919 44.1613 101.821 47.4043 106.466C48.2424 107.667 48.6891 108.307 48.7909 110.051C47.4082 111.072 46.3695 112.072 45.3473 111.98C43.9859 111.861 42.9394 113.189 43.3551 114.734C43.8328 116.505 46.5933 118.871 47.5836 119.354C48.8422 119.968 50.1677 119.88 51.5252 119.562C55.1703 118.708 56.7865 115.657 57.3194 114.651C57.4716 114.559 57.738 114.437 58.0239 114.326C58.9705 114.496 59.9714 114.138 60.5702 113.3C61.4297 112.095 61.5043 110.356 60.7563 108.971C60.0577 107.679 58.9434 106.928 57.7855 106.141C56.4784 105.246 55.7023 102.917 54.9523 100.665C54.3458 98.8469 53.7198 96.9662 52.717 95.5128C52.4195 95.0826 52.1725 94.5874 52.0184 94.1262L61.7204 99.8207C62.8036 100.457 62.8405 100.409 62.666 102.086C62.5701 103.005 62.4606 104.046 62.793 105.139C63.3404 106.945 64.7832 107.941 65.8868 108.926C66.1271 109.535 65.9071 111.478 67.3654 112.585C68.0824 113.13 69.7034 113.404 71.1491 112.772C71.9649 112.415 74.0685 112.864 75.3824 111.21C76.2205 110.153 76.1876 108.707 75.395 107.56L74.0879 104.907C74.8853 104.898 76.0413 104.912 76.8503 104.912C77.2679 104.912 78.3783 104.912 81.2658 102.105C83.1697 100.254 84.2462 98.689 84.4662 97.4526C85.7684 90.1303 85.7287 90.233 85.9041 89.7253C86.4903 89.9046 87.3371 90.0402 88.2663 89.6197C89.5308 89.048 89.9542 88.019 90.179 87.426C90.2372 87.4551 90.2905 87.4997 90.3312 87.5578C91.1441 88.7351 92.2138 88.8339 92.7787 88.7864C93.298 88.7448 93.8009 88.549 94.236 88.2206C95.856 86.9929 96.9606 85.4465 98.2299 84.3186C98.9111 83.714 99.7977 83.2024 100.397 82.9544C100.424 83.1569 100.424 83.4098 100.358 83.7053C100.083 84.9465 98.8045 86.2672 96.7601 87.4241C95.7989 87.9686 93.7379 89.5994 95.3696 92.9819C95.9587 94.2037 97.2029 94.976 98.6175 94.9963C99.4372 95.007 100.182 94.7338 100.9 94.4692C102.097 94.0264 102.778 93.8152 103.587 94.3171C103.714 94.7686 103.801 95.4721 103.636 95.8296C103.606 95.8945 103.565 95.9827 103.295 96.0593C100.765 96.7743 99.2938 96.9206 97.0691 97.1406C96.0498 97.2423 94.8949 97.3567 93.4414 97.5456C91.4357 97.8063 88.4068 98.1987 86.4225 100.349C85.8644 100.953 85.4593 101.624 85.1018 102.216C83.5583 104.773 83.5215 103.459 81.6766 105.075C80.2571 106.317 79.7097 108.463 80.2833 110.54C80.8201 112.482 83.1349 115.868 84.8915 116.733C87.2121 117.872 90.431 116.881 92.8862 116.096C99.3907 114.02 98.1941 116.048 101.37 116.075H101.407C103.701 116.075 107.5 112.352 110.5 111C111.396 110.497 110.503 110.396 110 109.5C109.497 108.603 109.87 106.904 108.5 108Z" fill="white"/>
<path d="M125.128 7.44116C121.001 7.46732 112.871 7.50414 111.638 7.45182C108.369 7.31423 105.129 8.52056 102.747 10.7666L91.77 21.1197C91.0501 21.7989 89.8447 22.9354 89.7149 24.6379C89.5579 26.6998 90.9619 27.4807 89.9387 28.6076C88.1016 30.6317 84.2327 28.5388 85.0805 27.5989C85.8498 26.7472 86.4893 25.788 86.9825 24.7483C88.0939 22.4083 86.8905 19.6052 84.4187 18.7845C76.9995 16.3195 73.1432 14.651 68.9612 15.5289C63.603 16.6538 60.4375 21.5092 57.833 26.2037C52.6259 35.5849 51.2529 33.899 47.6717 36.4386C46.8084 37.0509 41.1508 43.0244 42.5839 46.4264C43.3319 48.2044 45.044 49.4039 47.0526 49.557C48.724 49.6859 50.1668 49.2392 51.4186 48.5619C51.3062 51.7061 51.5291 55.5547 53.0222 57.4538C54.2818 59.0555 56.4687 59.478 58.6556 57.5914C61.3037 55.3067 64.1301 49.3012 64.228 46.6531C64.3123 44.3732 63.104 43.2928 62.4548 42.7124C62.4093 42.6717 62.356 42.6243 62.3075 42.5787C62.511 41.0614 63.1389 40.294 64.1505 36.7457C64.7929 34.4958 65.3471 32.5522 67.0699 31.4747C67.7491 31.0493 68.593 31.0852 69.1221 31.5609C69.3023 31.7247 69.7829 32.1578 69.1289 33.586C68.4157 35.1441 67.0263 36.582 66.1804 38.5654C65.1078 41.0798 65.3897 44.5583 68.0243 46.0524C72.0832 48.3536 75.488 43.7347 78.0809 44.1155C77.6206 46.345 77.016 48.7043 75.6866 50.4484C74.0976 52.5326 71.6956 53.0723 70.2896 52.3892C69.9466 52.2226 69.5591 52.1654 69.1822 52.2264C67.5088 52.4948 65.7308 54.0509 65.5312 56.9209C65.4353 58.2881 65.693 59.6349 65.4769 60.5564C64.8704 63.1415 60.5005 63.7016 57.9493 63.8052L50.5592 64.1066C50.5291 62.4894 51.7229 58.884 49.6329 56.9025C47.6872 55.0567 42.923 55.4598 41.8455 58.1931C41.4599 59.1727 41.5277 60.2444 41.5936 61.2812C41.7225 63.3217 41.7322 63.1599 40.3078 64.0911C35.5755 67.1849 36.1298 69.1276 34.9186 70.2293C34.6405 70.4822 33.3663 70.8721 33 71C32.0301 71.3372 31.1618 72.0291 31.5 73C31.8382 73.968 33 75 35 74.5C36.5 74 36.6462 73.6874 37.4223 72.982C39.5743 71.0248 38.3699 69.8039 42.3445 67.2052C46.7076 64.3537 44.981 62.0563 45.2794 59.6882C45.6699 59.4828 46.6011 59.4276 47.0158 59.5884C47.4518 60.443 46.7949 62.4507 46.8404 64.2287C46.9014 66.5793 48.1223 67.931 50.691 67.8254L58.1014 67.5231C66.0806 67.1985 68.4855 64.0174 69.0988 61.4071C69.4835 59.7725 69.1579 58.3966 69.2422 57.1796C69.2771 56.6845 69.436 56.3095 69.5765 56.0964C72.8622 57.1138 76.5519 55.4511 78.6458 52.7041C80.7145 49.9901 81.3975 46.5397 81.946 43.7666C82.2134 42.413 80.6156 40.2794 77.5964 40.386C73.9668 40.5159 71.3419 43.6562 69.8594 42.8161C69.25 42.4702 69.1279 41.1398 69.6036 40.0246C70.2548 38.4985 71.6365 37.0461 72.5124 35.1344C73.6509 32.6481 73.3224 30.3381 71.6132 28.7975C69.8575 27.2152 67.1784 27.0195 65.0971 28.3198C62.1612 30.156 61.3173 33.1151 60.5731 35.7254C59.5742 39.2272 58.7603 40.2978 58.5752 42.4935C58.3582 45.0621 60.5557 45.2559 60.5092 46.5155C60.4414 48.3662 57.6489 53.9996 55.8612 55.0489C55.2343 54.1042 54.7624 50.2169 55.4552 44.8334C55.6742 43.133 53.6569 42.0662 52.375 43.2056C50.5369 44.8373 49.1009 45.9807 47.3365 45.8469C46.7794 45.8043 46.2929 45.5117 46.0633 45.0883C46.1573 43.8567 48.879 40.1893 49.8247 39.4723C52.9525 37.2544 55.2924 38.4472 61.0857 28.0088C63.0837 24.4092 65.6901 20.017 69.7248 19.1702C72.8021 18.5248 76.0839 19.9356 83.2453 22.3144C83.5903 22.4287 83.7773 22.824 83.6213 23.1525C82.6378 25.2241 80.9286 25.8839 81.2542 28.4942C81.758 32.526 88.8903 35.2991 92.6934 31.1075C95.2824 28.2549 93.3804 25.507 93.425 24.9218C93.4453 24.6543 94.1061 24.0313 94.3232 23.8259L105.3 13.4718C106.955 11.9109 109.205 11.0718 111.478 11.1687C112.731 11.2229 119.826 11.191 123.279 11.1725V20.0422C123.279 21.0702 124.111 21.9026 125.139 21.9026C126.166 21.9026 127 21.0702 127 20.0432V9.30152C127 8.30836 126.225 7.46151 125.128 7.44116Z" fill="white"/>
</svg>
