<svg width="150" height="99" viewBox="0 0 150 99" fill="none" xmlns="http://www.w3.org/2000/svg">
<g clip-path="url(#clip0)">
<path d="M147.017 47.6458C144.802 46.9938 141.4 46.1944 137.765 46.0894C133.318 45.9607 129.654 46.8966 126.871 48.8701C126.694 48.9956 126.52 49.1234 126.347 49.2525C126.288 48.8606 126.219 48.4689 126.141 48.0804C125.547 45.1335 123.763 42.3226 120.84 39.7259C118.456 37.6087 115.804 36.0746 114 35.1606C112.446 34.3742 110.575 34.7513 109.447 36.0783C108.138 37.6201 106.287 40.0617 104.91 42.9369C103.221 46.4634 102.666 49.7456 103.259 52.6927C103.35 53.1399 103.454 53.5867 103.57 54.0281C101.81 54.5385 100.152 55.3727 98.6593 56.5111C96.1056 58.4584 94.2094 61.2208 93.32 64.2893C93.1752 64.7888 93.4627 65.3111 93.9623 65.4559C94.4616 65.6008 94.9841 65.3131 95.1289 64.8135C95.9068 62.1299 97.5662 59.7132 99.8014 58.0087C102.109 56.2486 104.868 55.3184 107.779 55.3184C111.23 55.3184 114.492 56.6441 116.964 59.0512C119.199 61.2273 120.569 64.0706 120.879 67.1412C119.367 67.1483 117.83 67.3849 116.316 67.876C112.265 69.1904 109.15 72.0711 107.424 75.6311C105.101 73.1166 101.797 71.6477 98.3446 71.6477C97.2251 71.6477 96.6826 71.8147 95.6508 72.0952C96.171 72.0952 95.6832 72.0865 95.6508 72.0952L95.3343 74.0465C95.1429 78.6984 92.0952 83.7778 86.2461 86.2573C87.0159 91.3968 91.5378 96.3369 98.3447 96.3369C102.506 96.3369 106.352 94.248 108.629 90.8208C111.441 94.8371 116.078 97.2468 120.972 97.2468C122.508 97.2468 124.069 97.0097 125.607 96.5109C129.744 95.1684 133.098 92.1025 134.807 88.0988C135.012 87.6206 134.789 87.0672 134.311 86.863C133.832 86.6587 133.279 86.8811 133.075 87.3594C131.579 90.8623 128.646 93.545 125.026 94.7194C118.119 96.9602 110.677 93.1641 108.436 86.2573C106.195 79.3505 109.991 71.9084 116.898 69.6675C123.805 67.4266 131.247 71.2229 133.488 78.1296C134.089 79.9819 134.272 81.8929 134.034 83.8096C133.97 84.3256 134.336 84.7962 134.853 84.8603C135.367 84.9244 135.839 84.5582 135.903 84.0419C136.176 81.8494 135.966 79.6648 135.279 77.5482C134.911 76.4117 134.418 75.3495 133.822 74.3704C136.699 73.6422 139.563 72.3006 142.172 70.451C144.955 68.4776 147.051 65.3286 148.401 61.0913C149.505 57.6269 149.877 54.1513 149.994 51.8458C150.093 49.9183 148.868 48.1912 147.017 47.6458ZM98.3447 94.4532C92.5764 94.4532 88.0317 90.5619 88.0317 84.7937C94.127 81.2381 92.5764 73.5311 98.3447 73.5311C101.577 73.5311 104.657 75.0512 106.631 77.6081C105.698 80.5115 105.633 83.7225 106.644 86.8385C106.888 87.5908 107.188 88.3095 107.534 88.9944C105.697 92.3619 102.178 94.4532 98.3447 94.4532ZM105.41 53.6199C105.296 53.1909 105.194 52.7558 105.106 52.3202C103.897 46.3224 108.743 39.8164 110.883 37.2977C111.444 36.6373 112.375 36.4493 113.149 36.841C116.097 38.3341 123.085 42.4546 124.294 48.4525C124.439 49.1733 124.549 49.9049 124.62 50.6271C124.621 50.6345 124.623 50.6416 124.624 50.6491C122.088 52.8852 120.095 55.5062 118.836 58.274C118.655 58.0792 118.47 57.8881 118.278 57.7016C117.838 57.273 117.376 56.8743 116.895 56.5068L115.716 50.6619L118.748 46.1001C119.035 45.6669 118.918 45.0824 118.484 44.7946C118.051 44.5066 117.467 44.6246 117.179 45.0578L115.19 48.0507L114.353 43.9007C114.251 43.3907 113.754 43.0609 113.244 43.1636C112.734 43.2663 112.404 43.763 112.507 44.2728L113.344 48.423L110.351 46.4342C109.917 46.1463 109.333 46.2642 109.045 46.6974C108.757 47.1306 108.875 47.7152 109.308 48.003L113.87 51.034L114.692 55.1105C112.579 54.0159 110.22 53.4349 107.779 53.4349C106.977 53.4348 106.186 53.4979 105.41 53.6199ZM148.113 51.7499C147.532 63.1551 143.002 67.553 141.082 68.9146C138.445 70.7843 135.538 72.0902 132.65 72.7092C130.64 70.2387 127.899 68.4816 124.865 67.6615L127.033 66.1237L133.272 67.1861C133.325 67.1953 133.379 67.1996 133.431 67.1996C133.882 67.1996 134.28 66.875 134.358 66.4158C134.446 65.9031 134.101 65.4165 133.588 65.3292L129.207 64.5831L134.672 60.7078L140.911 61.7702C140.964 61.7794 141.018 61.7837 141.07 61.7837C141.521 61.7837 141.919 61.4591 141.997 60.9999C142.085 60.4872 141.74 60.0007 141.227 59.9133L136.845 59.1672L141.069 56.1725C141.494 55.8717 141.594 55.2839 141.293 54.8596C140.992 54.4354 140.404 54.3351 139.98 54.6361L135.756 57.6308L136.502 53.2492C136.59 52.7364 136.245 52.2499 135.732 52.1627C135.22 52.0754 134.733 52.4202 134.646 52.9329L133.583 59.1714L128.117 63.0465L128.864 58.6649C128.951 58.1521 128.606 57.6657 128.093 57.5784C127.581 57.491 127.094 57.8359 127.007 58.3486L125.944 64.5871L122.743 66.8566C122.475 64.3571 121.593 61.9919 120.176 59.9436C121.556 56.3723 124.311 52.9939 127.961 50.4066C129.881 49.0451 135.531 46.2267 146.485 49.4526C147.497 49.7509 148.167 50.6955 148.113 51.7499Z" fill="white"/>
<path d="M104.134 66.0778C104.537 66.6063 105.037 67.264 105.842 67.6146C106.491 67.8975 107.174 67.8761 107.776 67.857C108.067 67.8479 108.361 67.8478 108.651 67.8571C108.806 67.862 108.966 67.867 109.13 67.867C109.603 67.867 110.103 67.8248 110.585 67.6149C111.389 67.2642 111.89 66.6064 112.293 66.0779C112.337 66.0195 112.381 65.9619 112.425 65.9055L112.44 65.8858C112.922 65.2647 113.521 64.4919 113.521 63.4582C113.521 62.4248 112.922 61.6521 112.44 61.0313L112.425 61.0111C112.381 60.9547 112.337 60.897 112.293 60.8386C111.89 60.3101 111.389 59.6524 110.585 59.3018C109.937 59.0189 109.254 59.0405 108.651 59.0594C108.36 59.0685 108.066 59.0685 107.776 59.0594C107.173 59.0403 106.491 59.0189 105.842 59.3016C105.038 59.6522 104.537 60.3097 104.135 60.8381C104.09 60.8966 104.046 60.9544 104.002 61.011L103.986 61.0311C103.505 61.652 102.906 62.4246 102.906 63.4582C102.906 64.4916 103.505 65.2642 103.986 65.885L104.002 65.9053C104.046 65.9616 104.09 66.0194 104.134 66.0778ZM105.475 62.1852L105.491 62.1651C105.538 62.1044 105.585 62.0422 105.633 61.9793C105.945 61.5698 106.24 61.183 106.595 61.0282C106.855 60.9147 107.274 60.9281 107.717 60.9419C108.047 60.9524 108.381 60.9524 108.71 60.9419C109.154 60.9281 109.572 60.9147 109.833 61.0283C110.188 61.1832 110.482 61.57 110.794 61.9796C110.842 62.0424 110.889 62.1044 110.936 62.1651L110.952 62.1854C111.305 62.6401 111.637 63.0694 111.637 63.4582C111.637 63.8472 111.304 64.2768 110.952 64.7316L110.936 64.7514C110.889 64.8121 110.842 64.8741 110.794 64.9369C110.482 65.3465 110.188 65.7334 109.833 65.8882C109.573 66.0016 109.154 65.9885 108.711 65.9744C108.546 65.9692 108.379 65.9642 108.214 65.9642C108.048 65.9642 107.882 65.9692 107.717 65.9744C107.274 65.9883 106.855 66.0016 106.595 65.8881C106.24 65.7332 105.945 65.3464 105.633 64.9369C105.585 64.8741 105.538 64.8119 105.491 64.7514L105.475 64.7311C105.123 64.2764 104.79 63.8471 104.79 63.4583C104.79 63.0693 105.123 62.6399 105.475 62.1852Z" fill="white"/>
<path d="M102.159 83.8056C102.12 83.7588 102.081 83.7108 102.042 83.6624C101.675 83.2092 101.218 82.6453 100.479 82.3424C99.8891 82.1007 99.2748 82.119 98.7328 82.135C98.4749 82.1426 98.214 82.1426 97.9566 82.135C97.4147 82.1189 96.8005 82.1007 96.2107 82.3423C95.4713 82.6451 95.0145 83.2091 94.6474 83.6622C94.608 83.7107 94.5692 83.7587 94.5306 83.8054L94.5175 83.8213C94.0709 84.3625 93.5151 85.0361 93.5151 85.9701C93.5151 86.9037 94.0706 87.5771 94.517 88.118L94.5306 88.1345C94.5692 88.1813 94.6079 88.2293 94.6474 88.2777C95.0145 88.7309 95.4715 89.2948 96.2105 89.5977C96.8005 89.8394 97.4149 89.8212 97.9567 89.8051C98.2142 89.7975 98.4754 89.7975 98.733 89.8051C98.8716 89.8093 99.0151 89.8136 99.1616 89.8136C99.5877 89.8136 100.04 89.7775 100.479 89.5978C101.218 89.295 101.675 88.731 102.042 88.2779C102.081 88.2294 102.12 88.1814 102.159 88.1347L102.172 88.1185C102.619 87.5773 103.174 86.904 103.174 85.9701C103.174 85.0366 102.619 84.3633 102.173 83.8223L102.159 83.8056ZM100.719 86.9196L100.706 86.936C100.664 86.987 100.621 87.0393 100.579 87.0921C100.311 87.4225 100.058 87.7347 99.7646 87.8548C99.545 87.9449 99.1777 87.9338 98.7887 87.9224C98.6414 87.918 98.4929 87.9137 98.3448 87.9137C98.1967 87.9137 98.0482 87.918 97.9009 87.9224C97.5119 87.9338 97.1445 87.9449 96.9248 87.8547C96.6315 87.7345 96.3786 87.4224 96.1108 87.0919C96.068 87.039 96.0257 86.9868 95.9836 86.9358L95.97 86.9192C95.6892 86.5789 95.3988 86.2268 95.3988 85.9699C95.3988 85.7128 95.6893 85.3607 95.9705 85.0201L95.9836 85.0039C96.0258 84.953 96.0682 84.9007 96.111 84.8478C96.3788 84.5175 96.6316 84.2053 96.9248 84.0852C97.1445 83.9951 97.5121 84.0062 97.9009 84.0175C98.1955 84.0261 98.494 84.0261 98.7887 84.0175C99.1775 84.006 99.5451 83.995 99.7648 84.0852C100.058 84.2053 100.311 84.5175 100.579 84.848C100.622 84.9008 100.664 84.9531 100.706 85.0041L100.72 85.0209C101.001 85.3612 101.291 85.7131 101.291 85.9699C101.291 86.2271 101 86.5791 100.719 86.9196Z" fill="white"/>
<path d="M127.776 81.2522L127.753 81.2473C127.685 81.2333 127.616 81.2183 127.546 81.2033C126.912 81.0663 126.123 80.8956 125.283 81.1445C124.614 81.3429 124.093 81.7874 123.634 82.1795C123.521 82.2756 123.408 82.3725 123.292 82.4657C123.176 82.5589 123.057 82.6487 122.939 82.7379C122.457 83.1022 121.911 83.5151 121.574 84.1255C121.15 84.8919 121.147 85.6993 121.144 86.3482C121.144 86.4196 121.144 86.4903 121.143 86.5599L121.143 86.5842C121.133 87.3616 121.12 88.329 121.757 89.1207C122.393 89.9124 123.34 90.1082 124.101 90.2656L124.125 90.2706C124.193 90.2847 124.262 90.2997 124.332 90.3147C124.731 90.401 125.191 90.5004 125.687 90.5004C125.979 90.5004 126.284 90.4658 126.595 90.3735C127.264 90.1751 127.785 89.7306 128.244 89.3384C128.357 89.2424 128.47 89.1454 128.586 89.0523C128.702 88.9591 128.821 88.8693 128.939 88.78C129.421 88.4158 129.967 88.003 130.304 87.3925C130.728 86.6259 130.731 85.8184 130.734 85.1694C130.734 85.0981 130.734 85.0276 130.735 84.9581L130.735 84.9338C130.745 84.1565 130.758 83.1891 130.121 82.3973C129.485 81.6054 128.538 81.4097 127.776 81.2522ZM128.852 84.9095L128.852 84.9341C128.851 85.009 128.85 85.0851 128.85 85.162C128.848 85.6632 128.846 86.1363 128.656 86.4811C128.512 86.7417 128.167 87.002 127.803 87.2776C127.67 87.3781 127.537 87.4794 127.406 87.5841C127.276 87.689 127.148 87.7977 127.021 87.9058C126.674 88.2025 126.345 88.4828 126.06 88.5674C125.682 88.6796 125.22 88.5794 124.73 88.4736C124.655 88.4573 124.581 88.4412 124.507 88.4261L124.483 88.4212C123.969 88.3148 123.437 88.2049 123.225 87.9407C123.013 87.6765 123.019 87.1336 123.026 86.6085L123.026 86.5838C123.027 86.5088 123.028 86.4325 123.028 86.3554C123.03 85.8545 123.032 85.3814 123.222 85.0367C123.366 84.7762 123.711 84.5159 124.075 84.2402C124.208 84.1398 124.342 84.0386 124.472 83.9337C124.602 83.829 124.73 83.7201 124.857 83.612C125.204 83.3153 125.533 83.035 125.818 82.9504C125.936 82.9155 126.061 82.9012 126.194 82.9012C126.486 82.9012 126.811 82.9714 127.148 83.0442C127.223 83.0604 127.298 83.0765 127.371 83.0917L127.395 83.0967C127.909 83.2029 128.441 83.3129 128.653 83.5771C128.866 83.8416 128.859 84.3845 128.852 84.9095Z" fill="white"/>
</g>
<path d="M96.7939 62.3437H88.5907V52.4999C88.5923 48.6693 87.8028 44.8796 86.2716 41.3684C84.7403 37.8571 82.5004 34.6999 79.6922 32.0947C81.907 26.1679 87.946 20.9938 88.0097 20.9384C88.2658 20.7212 88.449 20.4306 88.5346 20.106C88.6203 19.7813 88.6043 19.4382 88.4887 19.1229C88.3732 18.8077 88.1637 18.5354 87.8886 18.343C87.6134 18.1506 87.2859 18.0472 86.9501 18.0468C82.2066 18.0468 78.0829 18.9781 74.6249 20.8203C75.2775 19.7254 76.001 18.6745 76.7909 17.6742C78.192 15.8925 79.75 14.2401 81.4462 12.7367C81.7027 12.5197 81.8864 12.2291 81.9724 11.9043C82.0584 11.5795 82.0426 11.2361 81.9272 10.9205C81.8117 10.605 81.6021 10.3325 81.3268 10.1399C81.0514 9.94733 80.7236 9.84393 80.3876 9.84369C75.9528 9.84369 72.0409 10.6695 68.71 12.2962C68.2501 8.86588 66.6943 2.80336 61.4339 0.173235C61.206 0.0593107 60.9548 0 60.7001 0C60.4454 0 60.1942 0.0593107 59.9663 0.173235C54.7118 2.80049 53.1532 8.85255 52.6916 12.2851C49.3716 10.6626 45.4661 9.84369 41.0126 9.84369C40.6768 9.8439 40.3491 9.94716 40.0738 10.1395C39.7985 10.3319 39.5889 10.6041 39.4733 10.9194C39.3577 11.2347 39.3416 11.5779 39.4272 11.9026C39.5128 12.2274 39.6961 12.518 39.9521 12.7353C41.6488 14.2388 43.2073 15.8914 44.6086 17.6734C45.3967 18.6711 46.1188 19.7192 46.7704 20.8111C43.3191 18.9752 39.1991 18.0468 34.4501 18.0468C34.1143 18.047 33.7866 18.1503 33.5113 18.3427C33.236 18.535 33.0264 18.8073 32.9108 19.1226C32.7952 19.4379 32.7791 19.781 32.8647 20.1058C32.9503 20.4305 33.1336 20.7211 33.3896 20.9384C33.4542 20.9932 39.4928 26.1679 41.708 32.0947C38.8998 34.6999 36.6599 37.8571 35.1286 41.3684C33.5974 44.8796 32.8079 48.6693 32.8095 52.4999V52.6882C30.9993 53.0321 28.6037 53.8161 27.3245 54.7765C27.1427 54.9122 26.9515 55.0348 26.7525 55.1436C27.1846 51.1924 27.9495 47.1616 29.2526 45.207C29.3754 45.0278 29.4614 44.826 29.5056 44.6133C29.5499 44.4006 29.5514 44.1813 29.5102 43.968C29.4689 43.7547 29.3858 43.5517 29.2655 43.3708C29.1452 43.1899 28.9901 43.0348 28.8094 42.9143C28.6286 42.7938 28.4257 42.7104 28.2125 42.6689C27.9993 42.6274 27.7799 42.6287 27.5672 42.6727C27.3544 42.7167 27.1525 42.8025 26.9732 42.9251C26.7939 43.0478 26.6407 43.2048 26.5226 43.3871C25.0352 45.6183 23.9901 49.7076 23.4134 55.5361C22.8626 55.3792 22.3456 55.122 21.8882 54.7773C20.1578 53.4776 16.3827 52.4999 14.7806 52.4999C10.4912 52.4999 6.621 54.2488 3.883 57.4245C0.762329 61.0441 -0.570679 66.1887 0.225639 71.539L1.25103 78.4249C1.88801 82.7921 3.31351 87.0071 5.458 90.8645C8.13653 95.6633 12.7844 98.4438 17.7012 98.4436C18.9111 98.4425 20.1151 98.2758 21.2798 97.9481C21.3171 97.9377 21.3539 97.926 21.3901 97.9128L24.1345 96.9311C24.4399 96.8206 24.7744 96.8206 25.0799 96.9311L27.824 97.9128C27.8603 97.926 27.8972 97.9377 27.9344 97.9481C29.0991 98.2758 30.3032 98.4425 31.5132 98.4436C35.109 98.4436 38.5605 96.9545 41.2037 94.2778C46.7653 96.9946 52.8699 98.4167 59.0595 98.4374C69.2724 98.4374 79.1399 94.5707 86.8476 87.5496C94.2109 80.8405 98.4345 72.2514 98.4345 63.9843C98.4345 63.5492 98.2616 63.1319 97.9539 62.8242C97.6463 62.5165 97.229 62.3437 96.7939 62.3437ZM53.7736 54.1201L60.7216 47.373L67.6836 54.1317L60.7387 60.8671L53.7736 54.1201ZM57.547 62.3437H48.1668C47.9274 61.6737 47.6445 61.0201 47.3198 60.387L51.4179 56.4073L57.547 62.3437ZM70.0385 56.4182L76.1425 62.3437H63.928L70.0385 56.4182ZM63.0759 45.086L70.018 38.3442L76.9858 45.1118L70.0398 51.8472L63.0759 45.086ZM64.2244 28.144C67.2386 28.5782 70.1452 29.572 72.7942 31.0744L70.018 33.7704L64.2244 28.144ZM67.6631 36.0574L60.7206 42.7997L53.7818 36.0635L60.7255 29.3204L67.6631 36.0574ZM51.4271 33.7763L48.6298 31.0607C51.2903 29.5561 54.2095 28.5643 57.2359 28.1367L51.4271 33.7763ZM51.4271 38.3496L58.3663 45.0864L51.4156 51.8363L44.4684 45.1077L51.4271 38.3496ZM49.0603 54.1231L45.4782 57.6023C45.4288 57.543 45.3801 57.4829 45.3297 57.4245C43.1189 54.8441 40.0466 53.1539 36.6836 52.6677L42.1133 47.3947L49.0603 54.1231ZM47.9619 78.4249L48.9873 71.539C49.2852 69.5791 49.2876 67.5855 48.9942 65.6249H88.2991C87.3531 71.0425 84.1498 76.4697 79.3177 80.7492C73.6061 85.8079 66.4115 88.5937 59.0595 88.5937C54.5885 88.5753 50.1779 87.5602 46.1488 85.6221C46.9922 83.2896 47.5997 80.8785 47.9621 78.4249H47.9619ZM82.5321 62.3437L85.3095 59.6539V62.3437H82.5321ZM85.3095 55.0862L79.3364 60.8708L72.3959 54.133L79.3417 47.3978L85.3095 53.1937V55.0862ZM84.9436 48.2643L81.6981 45.1126L83.5362 43.3301C84.1775 44.9207 84.6493 46.5746 84.9436 48.2643ZM82.0239 40.2252L79.3429 42.825L72.3736 36.0574L75.5978 32.9263C78.2007 34.9114 80.3847 37.3923 82.0239 40.2258V40.2252ZM82.6353 21.6418C80.751 23.7189 78.4789 26.64 77.0413 29.9118C75.5747 28.8475 74.0079 27.9284 72.3631 27.1677C72.3836 26.9121 72.4148 26.6566 72.455 26.4011C75.098 23.871 78.5097 22.277 82.6353 21.6425V21.6418ZM76.0709 13.4387C73.4069 16.3756 69.9688 20.9993 69.2078 25.9364C67.2772 25.3166 65.2843 24.9108 63.265 24.7264C63.0726 24.129 62.8264 23.4531 62.5136 22.7269C64.5281 18.8688 68.452 14.6157 76.0709 13.4404V13.4387ZM60.7001 3.52872C64.7658 6.17731 65.4735 12.2513 65.5963 14.1723C63.666 15.5892 62.0066 17.3423 60.6976 19.3474C59.9449 18.1966 59.0771 17.1252 58.1077 16.1498C57.3914 15.4315 56.6214 14.7689 55.8043 14.1678C55.9277 12.2421 56.6375 6.17526 60.7001 3.52872ZM45.3315 13.4428C54.4214 14.8538 58.2068 20.6542 59.751 24.6272C57.1829 24.712 54.6391 25.1532 52.1924 25.938C52.1412 25.605 52.078 25.2736 52.0029 24.944L52.0608 24.8905C52.0308 24.8581 51.9992 24.8269 51.9697 24.7949C50.9037 20.2947 47.7884 16.1519 45.3315 13.4428ZM38.7641 21.6416C42.8944 22.2755 46.3032 23.8717 48.9458 26.405C48.9856 26.6593 49.017 26.914 49.0371 27.1683C47.3923 27.929 45.8255 28.8481 44.3589 29.9124C42.9211 26.6396 40.6486 23.7187 38.7641 21.6416ZM45.8237 32.9101L49.0722 36.0635L42.1106 42.8239L39.3954 40.194C41.0369 37.3659 43.2216 34.8904 45.8237 32.9101ZM37.879 43.2936L39.7553 45.111L36.4467 48.3237C36.7426 46.6005 37.2228 44.9141 37.879 43.2936ZM40.8896 89.2653C38.8099 92.9926 35.2362 95.1562 31.4834 95.1562C30.6011 95.1556 29.7227 95.0367 28.872 94.8026L26.1855 93.8416C25.1649 93.4774 24.0498 93.4774 23.0293 93.8416L20.3407 94.8032C15.706 96.0729 10.8829 93.8529 8.32315 89.2661C6.37198 85.7547 5.07538 81.9178 4.4966 77.9425L3.47121 71.0568C2.81496 66.6514 3.87152 62.4641 6.36834 59.568C7.40927 58.3611 8.70173 57.3968 10.155 56.7426C11.6082 56.0885 13.1871 55.7603 14.7806 55.7812C15.8229 55.7812 18.8699 56.6136 19.9185 57.4013C20.8717 58.1201 21.9764 58.612 23.1485 58.8395C23.0677 60.1455 23.0225 61.2933 22.9973 62.1722C21.5794 61.854 20.8645 61.2024 20.8257 61.1659L20.8438 61.1838C20.6917 61.03 20.5107 60.9078 20.3112 60.8243C20.1117 60.7408 19.8976 60.6975 19.6813 60.697C19.4651 60.6965 19.2508 60.7387 19.0509 60.8213C18.851 60.9039 18.6694 61.0253 18.5166 61.1783C18.3638 61.3313 18.2427 61.5131 18.1604 61.7131C18.078 61.9131 18.0361 62.1274 18.0369 62.3437C18.0377 62.5599 18.0812 62.7739 18.165 62.9733C18.2488 63.1727 18.3712 63.3535 18.5252 63.5055C18.7452 63.7245 20.7599 65.6249 24.6064 65.6249C28.4561 65.6249 30.4716 63.7208 30.6884 63.5038C30.8407 63.3515 30.9616 63.1706 31.044 62.9715C31.1265 62.7725 31.1689 62.5591 31.1689 62.3437C31.1689 62.1282 31.1265 61.9149 31.044 61.7158C30.9616 61.5168 30.8407 61.3359 30.6884 61.1836C30.536 61.0312 30.3551 60.9104 30.1561 60.8279C29.957 60.7455 29.7437 60.703 29.5282 60.703C29.3128 60.703 29.0994 60.7455 28.9004 60.8279C28.7013 60.9104 28.5205 61.0312 28.3681 61.1836C28.3595 61.1922 27.6587 61.8291 26.2763 62.1554C26.3048 61.1643 26.3567 60.0037 26.4389 58.7577C27.4726 58.5031 28.4439 58.0415 29.294 57.4007C30.3426 56.6136 33.3896 55.7806 34.4319 55.7806C36.0254 55.7595 37.6042 56.0876 39.0575 56.7416C40.5108 57.3956 41.8033 58.3598 42.8444 59.5665C45.3412 62.4624 46.3971 66.6499 45.7415 71.0554L44.7161 77.9411C44.1373 81.9165 42.8407 85.7536 40.8896 89.2653ZM84.6368 85.124C77.5356 91.5934 68.4521 95.1562 59.0595 95.1562C53.6119 95.1372 48.2332 93.9365 43.2947 91.6368C43.4536 91.3852 43.6081 91.1284 43.7553 90.8645C44.159 90.1413 44.537 89.4049 44.8892 88.6554C49.3186 90.7571 54.1568 91.8563 59.0595 91.8749C67.2138 91.8749 75.1809 88.7961 81.4934 83.2055C87.0407 78.2924 90.6708 71.9592 91.6216 65.6249H95.0903C94.5686 72.4649 90.824 79.4882 84.6368 85.124Z" fill="white"/>
<defs>
<clipPath id="clip0">
<rect width="64" height="64" fill="white" transform="translate(86 34)"/>
</clipPath>
</defs>
</svg>
