<svg width="45" height="45" viewBox="0 0 45 45" fill="none" xmlns="http://www.w3.org/2000/svg">
<g clip-path="url(#clip0)">
<path d="M2.81245 3.06187C-0.723803 6.73499 -5.36591e-05 10.6369 -5.36591e-05 22.4906C-5.36591e-05 32.3344 -1.71755 42.2025 7.27119 44.5256C10.0781 45.2475 34.9481 45.2475 37.7512 44.5219C41.4937 43.5562 44.5387 40.5206 44.9549 35.2275C45.0131 34.4887 45.0131 10.5056 44.9531 9.75187C44.5106 4.11374 41.0399 0.86437 36.4668 0.206245C35.4187 0.0543704 35.2087 0.00937042 29.8312 -4.58211e-06C10.7568 0.00937042 6.57557 -0.840005 2.81245 3.06187Z" fill="url(#paint0_linear)"/>
<path d="M22.4959 5.8856C15.6878 5.8856 9.22278 5.27998 6.7534 11.6175C5.7334 14.235 5.88153 17.6344 5.88153 22.5019C5.88153 26.7731 5.74465 30.7875 6.7534 33.3844C9.21715 39.7256 15.7347 39.1181 22.4922 39.1181C29.0115 39.1181 35.7334 39.7969 38.2328 33.3844C39.2547 30.7406 39.1047 27.3919 39.1047 22.5019C39.1047 16.0106 39.4628 11.82 36.3147 8.67373C33.1272 5.48623 28.8165 5.8856 22.4884 5.8856H22.4959ZM21.0072 8.87998C35.2084 8.85748 37.0159 7.27873 36.0184 29.2106C35.664 36.9675 29.7578 36.1162 22.4978 36.1162C9.26028 36.1162 8.87965 35.7375 8.87965 22.4944C8.87965 9.09748 9.92965 8.88748 21.0072 8.87623V8.87998ZM31.3647 11.6381C30.264 11.6381 29.3715 12.5306 29.3715 13.6312C29.3715 14.7319 30.264 15.6244 31.3647 15.6244C32.4653 15.6244 33.3578 14.7319 33.3578 13.6312C33.3578 12.5306 32.4653 11.6381 31.3647 11.6381ZM22.4959 13.9687C17.784 13.9687 13.9647 17.79 13.9647 22.5019C13.9647 27.2137 17.784 31.0331 22.4959 31.0331C27.2078 31.0331 31.0253 27.2137 31.0253 22.5019C31.0253 17.79 27.2078 13.9687 22.4959 13.9687ZM22.4959 16.9631C29.8178 16.9631 29.8272 28.0406 22.4959 28.0406C15.1759 28.0406 15.1647 16.9631 22.4959 16.9631Z" fill="white"/>
</g>
<defs>
<linearGradient id="paint0_linear" x1="2.89873" y1="42.1258" x2="44.7215" y2="5.92869" gradientUnits="userSpaceOnUse">
<stop stop-color="#FFDD55"/>
<stop offset="0.5" stop-color="#FF543E"/>
<stop offset="1" stop-color="#C837AB"/>
</linearGradient>
<clipPath id="clip0">
<rect width="45" height="45" fill="white"/>
</clipPath>
</defs>
</svg>
