<svg width="120" height="120" viewBox="0 0 120 120" fill="none" xmlns="http://www.w3.org/2000/svg">
<path d="M101.608 16.9803C90.4065 10.7153 75.6299 7.26562 60 7.26562C44.3701 7.26562 29.5935 10.7153 18.392 16.9803C6.53137 23.6133 0 32.6486 0 42.4219V77.5781C0 87.3514 6.53137 96.3867 18.392 103.02C29.5935 109.285 44.3701 112.734 60 112.734C75.6299 112.734 90.4065 109.285 101.608 103.02C113.469 96.3867 120 87.3514 120 77.5781V42.4219C120 32.6486 113.469 23.6133 101.608 16.9803ZM112.969 77.5781C112.969 84.6918 107.715 91.5482 98.1757 96.8829C88.006 102.571 74.4479 105.703 60 105.703C45.5521 105.703 31.994 102.571 21.8243 96.8829C12.2845 91.5482 7.03125 84.6918 7.03125 77.5781V76.6919C9.96368 79.9072 13.7714 82.8571 18.392 85.4416C29.5935 91.7065 44.3701 95.1562 60 95.1562C75.6299 95.1562 90.4065 91.7065 101.608 85.4416C106.229 82.8571 110.036 79.9072 112.969 76.6919V77.5781ZM112.969 60C112.969 67.1136 107.715 73.97 98.1757 79.3048C88.006 84.993 74.4479 88.125 60 88.125C45.5521 88.125 31.994 84.993 21.8243 79.3048C12.2845 73.97 7.03125 67.1136 7.03125 60V59.1138C9.96368 62.3291 13.7714 65.2789 18.392 67.8635C29.5935 74.1284 44.3701 77.5781 60 77.5781C75.6299 77.5781 90.4065 74.1284 101.608 67.8635C106.229 65.2789 110.036 62.3291 112.969 59.1138V60ZM98.1757 61.7267C88.006 67.4149 74.4479 70.5469 60 70.5469C45.5521 70.5469 31.994 67.4149 21.8243 61.7267C12.2845 56.3919 7.03125 49.5355 7.03125 42.4219C7.03125 35.3082 12.2845 28.4518 21.8243 23.1171C31.994 17.4289 45.5521 14.2969 60 14.2969C74.4479 14.2969 88.006 17.4289 98.1757 23.1171C107.715 28.4518 112.969 35.3082 112.969 42.4219C112.969 49.5355 107.715 56.3919 98.1757 61.7267Z" fill="white"/>
<path d="M72.4292 29.816C64.7974 22.1832 44.9396 21.394 42.7002 21.33L38.9767 21.2219L39.0839 24.9454C39.1489 27.1848 39.938 47.0425 47.5699 54.6753C54.1818 61.2863 60.6125 60.6519 67.3975 54.6149L74.9158 62.1332L79.8871 57.161L72.3697 49.6426C78.3994 42.8659 79.0695 36.4554 72.4292 29.816ZM52.5421 49.7031C48.9404 46.1014 46.9968 36.0699 46.3449 28.5873C53.8229 29.2355 63.847 31.1765 67.4579 34.7873C71.1438 38.4732 70.827 40.687 67.3865 44.6594L57.5143 34.7873L52.5421 39.7595L62.4142 49.6317C58.4335 53.0805 56.2216 53.3826 52.5421 49.7031Z" fill="white"/>
</svg>
