<svg width="112" height="112" viewBox="0 0 112 112" fill="none" xmlns="http://www.w3.org/2000/svg">
<path d="M105.72 21.8312L103.523 16.1213L99.6707 20.8725C99.5504 21.0246 87.3665 35.8582 71.3372 38.1471C68.2948 38.5822 65.454 39.1482 62.7087 39.7815C63.4623 27.3182 58.375 15.4279 47.5673 4.35845L43.2973 0L41.6346 5.87613C41.5957 5.99995 37.9094 18.6897 28.5451 24.4031C18.2858 30.6825 11.7516 37.6235 8.60305 45.6046C5.42244 53.1481 5.34107 61.6405 8.37664 69.2435C10.501 74.4592 14.6176 78.6125 19.814 80.7835C20.3228 80.9774 20.8411 81.1452 21.3671 81.2859C21.0956 84.8138 21.4065 88.3624 22.2869 91.7893C20.3801 91.9556 18.5582 92.0405 16.853 92.0405C12.173 92.1311 7.50747 91.4926 3.02409 90.1478L0.593689 96.7987C5.85647 98.449 11.353 99.2318 16.8671 99.1159C19.6071 99.1057 22.3442 98.9346 25.064 98.6029C26.227 100.644 27.6545 102.522 29.3092 104.189C35.039 109.511 42.6628 112.314 50.4753 111.972C62.4281 111.699 73.9708 107.562 83.376 100.181L84.4125 99.3671C94.1412 91.7469 123.706 68.5961 105.72 21.8312ZM22.5558 74.2494L22.4992 74.2281C19.0035 72.7764 16.2472 69.9674 14.8613 66.4452C12.5646 60.5644 12.6738 54.0161 15.1655 48.2154C17.7339 41.7025 23.3022 35.89 32.2208 30.442C38.4429 26.2776 43.3181 20.392 46.2513 13.5034C53.1726 21.2125 56.4773 31.5079 55.3361 41.8051C47.4541 44.2081 40.2523 48.4411 34.3186 54.1587C28.6948 59.7012 24.6366 66.6325 22.5558 74.2494ZM80.0647 93.781L79.0034 94.6195C64.6155 106.014 43.3221 108.19 34.3186 99.1867C33.7232 98.5894 33.1678 97.9535 32.6559 97.2834C47.1357 93.9862 64.7854 85.4604 82.9126 65.8792C82.9126 65.8792 84.5875 62.5 82.5 60.5C80.4126 58.5 77.7192 61.0714 77.7192 61.0714C59.9953 80.221 42.9542 88.0464 29.3446 90.7881C28.3742 87.4833 28.0887 84.015 28.5062 80.596C29.5845 72.4336 33.3951 64.8771 39.3174 59.1575C46.6086 51.8628 57.4128 47.2814 72.3384 45.1517C83.2281 43.0444 93.221 37.679 100.994 29.7663C113.008 67.9841 89.2557 86.5854 80.0647 93.781Z" fill="white"/>
</svg>
