<svg width="133" height="133" viewBox="0 0 133 133" fill="none" xmlns="http://www.w3.org/2000/svg">
<g clip-path="url(#clip0)">
<path d="M94.9436 49.0012C93.6864 49.1981 92.8259 50.3772 93.0228 51.6344C93.2196 52.8926 94.7559 56.0301 96.0131 55.8333C97.2714 55.6364 97.7747 52.1793 97.5778 50.9221C97.381 49.6638 96.2019 48.8044 94.9436 49.0012Z" fill="white"/>
<path d="M114.795 53.5939C114.599 52.3357 113.42 51.4762 112.161 51.6731C110.904 51.8699 110.044 53.049 110.24 54.3063C110.437 55.5645 111.973 58.702 113.231 58.5052C114.489 58.3083 114.992 54.8512 114.795 53.5939Z" fill="white"/>
<path d="M106.943 73.4883C108.201 73.2915 108.704 69.8353 108.507 68.5771C108.31 67.3198 107.131 66.4594 105.873 66.6562C104.616 66.8531 103.755 68.0322 103.952 69.2904C104.149 70.5477 105.684 73.6852 106.943 73.4883Z" fill="white"/>
<path d="M116.882 87.7988C118.14 87.602 118.643 84.1459 118.446 82.8876C118.25 81.6304 117.071 80.7699 115.813 80.9668C114.555 81.1636 113.695 82.3427 113.892 83.601C114.088 84.8582 115.625 87.9957 116.882 87.7988Z" fill="white"/>
<path d="M124.052 68.011C125.309 67.8141 125.813 64.358 125.616 63.0998C125.42 61.8425 124.24 60.9821 122.982 61.1789C121.724 61.3758 120.864 62.5549 121.061 63.8131C121.258 65.0703 122.793 68.2078 124.052 68.011V68.011Z" fill="white"/>
<path d="M79.3658 56.8054C78.1085 57.0023 77.2481 58.1814 77.4449 59.4386C77.6418 60.6968 79.177 63.8343 80.4353 63.6375C81.6935 63.4406 82.1968 59.9845 82 58.7263C81.8031 57.468 80.624 56.6086 79.3658 56.8054Z" fill="white"/>
<path d="M89.931 69.1514C88.6737 69.3482 87.8132 70.5273 88.0101 71.7845C88.207 73.0428 89.7422 76.1803 91.0005 75.9834C92.2587 75.7866 92.762 72.3294 92.5651 71.0722C92.3683 69.814 91.1892 68.9545 89.931 69.1514Z" fill="white"/>
<path d="M84.8392 85.8142C83.5819 86.011 82.7214 87.1901 82.9183 88.4484C83.1152 89.7056 84.6504 92.8431 85.9087 92.6463C87.1659 92.4494 87.6702 88.9933 87.4734 87.735C87.2765 86.4778 86.0974 85.6173 84.8392 85.8142V85.8142Z" fill="white"/>
<path d="M101.466 90.6785C100.209 90.8753 99.3485 92.0544 99.5454 93.3116C99.7422 94.5699 101.277 97.7074 102.536 97.5105C103.794 97.3137 104.297 93.8565 104.1 92.5993C103.904 91.3411 102.724 90.4816 101.466 90.6785Z" fill="white"/>
<path d="M39.7453 59.5239C41.1943 59.5239 42.3684 55.7249 42.3684 54.2759C42.3684 52.8269 41.1943 51.6528 39.7453 51.6528C38.2963 51.6528 37.1213 52.8269 37.1213 54.2759C37.1213 55.7249 38.2963 59.5239 39.7453 59.5239Z" fill="white"/>
<path d="M58.6362 65.5584C60.0852 65.5584 61.2602 61.7593 61.2602 60.3103C61.2602 58.8613 60.0852 57.6873 58.6362 57.6873C57.1872 57.6873 56.0121 58.8613 56.0121 60.3103C56.0121 61.7603 57.1872 65.5584 58.6362 65.5584Z" fill="white"/>
<path d="M51.5515 76.0535C51.5515 74.6045 50.3774 73.4294 48.9284 73.4294C47.4794 73.4294 46.3044 74.6045 46.3044 76.0535C46.3044 77.5025 47.4794 81.3006 48.9284 81.3006C50.3774 81.3006 51.5515 77.5025 51.5515 76.0535Z" fill="white"/>
<path d="M54.963 93.8953C54.963 95.3443 56.138 99.1424 57.586 99.1424C59.035 99.1424 60.21 95.3443 60.21 93.8953C60.21 92.4463 59.035 91.2712 57.586 91.2712C56.138 91.2712 54.963 92.4463 54.963 93.8953Z" fill="white"/>
<path d="M71.7554 72.9048C71.7554 71.4558 70.5804 70.2808 69.1314 70.2808C67.6824 70.2808 66.5073 71.4558 66.5073 72.9048C66.5073 74.3538 67.6824 78.1519 69.1314 78.1519C70.5804 78.1519 71.7554 74.3538 71.7554 72.9048V72.9048Z" fill="white"/>
<path d="M20.8544 57.6873C19.4054 57.6873 18.2303 58.8613 18.2303 60.3103C18.2303 61.7593 19.4054 65.5584 20.8544 65.5584C22.3034 65.5584 23.4774 61.7593 23.4774 60.3103C23.4774 58.8613 22.3034 57.6873 20.8544 57.6873Z" fill="white"/>
<path d="M33.1852 76.0535C33.1852 74.6045 32.0111 73.4294 30.5621 73.4294C29.1131 73.4294 27.9381 74.6045 27.9381 76.0535C27.9381 77.5025 29.1131 81.3006 30.5621 81.3006C32.0111 81.3006 33.1852 77.5025 33.1852 76.0535Z" fill="white"/>
<path d="M19.2795 93.8953C19.2795 95.3443 20.4546 99.1424 21.9036 99.1424C23.3526 99.1424 24.5266 95.3443 24.5266 93.8953C24.5266 92.4463 23.3526 91.2712 21.9036 91.2712C20.4546 91.2712 19.2795 92.4463 19.2795 93.8953Z" fill="white"/>
<path d="M39.7453 107.538C41.1943 107.538 42.3684 103.74 42.3684 102.291C42.3684 100.842 41.1943 99.667 39.7453 99.667C38.2963 99.667 37.1213 100.842 37.1213 102.291C37.1213 103.74 38.2963 107.538 39.7453 107.538V107.538Z" fill="white"/>
<path d="M12.9822 72.9048C12.9822 71.4558 11.8082 70.2808 10.3592 70.2808C8.91018 70.2808 7.73514 71.4558 7.73514 72.9048C7.73514 74.3538 8.91018 78.1519 10.3592 78.1519C11.8082 78.1519 12.9822 74.3538 12.9822 72.9048V72.9048Z" fill="white"/>
<path d="M123.092 44.0018C122.248 43.3167 121.633 44.0566 120.798 44.7517C119.963 45.4468 118.805 44.9209 119.501 45.757C125.069 50.6377 126.01 54.1155 127.04 56.6319C130.848 65.9338 129.249 78.7435 122.867 90.0606C117.81 99.0266 110.711 105.018 103.877 106.086C99.4185 106.784 94.2597 105.571 88.9578 102.576C84.144 99.8567 79.4642 95.7623 75.6763 90.9759C79.3495 82.0576 80.4728 72.8359 78.5885 64.9079C77.3343 59.6304 75.1618 55.4194 72.4403 52.0586C75.4175 48.6827 79.4997 46.0008 84.6047 44.0779C88.8787 42.4686 92.5824 41.8953 93.8031 41.7065C95.1577 41.4934 98.7579 40.9293 103.285 41.1555C108.486 41.4133 113.477 42.0964 119.501 45.757C120.447 46.2897 120.407 45.58 120.939 44.6323C121.473 43.6855 124.038 44.5355 123.092 44.0018C118.968 40.2662 111.357 38.1215 106.952 37.5401C112.247 28.4128 107.681 18.8917 107.463 18.4493C107.042 17.5929 106.068 17.1637 105.151 17.4285C98.2414 19.4285 94.693 23.4458 92.9061 27.4681C91.9543 24.6583 90.6524 21.5756 88.8655 18.4534C88.3257 17.5097 87.1243 17.1829 86.1806 17.7228C85.2369 18.2626 84.9102 19.465 85.45 20.4077C86.4799 22.2078 87.3353 24.0018 88.0476 25.7319C85.1506 23.4772 81.1354 21.8993 75.5789 22.0556C74.625 22.083 73.8285 22.7903 73.6884 23.7339C73.6164 24.222 72.1796 34.6807 80.0081 41.7562C75.8904 43.7025 72.4545 46.1804 69.7514 49.1586C68.3642 47.8547 66.8858 46.7172 65.3505 45.7218C71.4855 39.0926 71.6205 30.4615 71.6235 30.0627C71.6296 29.1089 70.9507 28.288 70.0132 28.1144C66.3216 27.4326 62.8939 27.5158 59.7757 28.3519C60.1309 23.4792 58.9984 19.7684 58.9406 19.5797C58.6555 18.6685 57.7575 18.0931 56.8128 18.2139C50.5368 19.0135 46.3257 21.529 43.4997 24.5964C44.4728 21.2519 45.9746 17.8324 48.2993 14.5295C48.9254 13.6416 48.7123 12.4138 47.8234 11.7877C46.9345 11.1627 45.7067 11.3757 45.0817 12.2646C41.3719 17.533 39.5352 22.8938 38.6311 28.1997C36.0456 23.6335 31.315 19.3138 22.6768 18.2139C21.7311 18.0962 20.8341 18.6695 20.55 19.5797C20.4901 19.7684 19.3587 23.4803 19.7138 28.3519C16.5956 27.5168 13.1669 27.4336 9.4764 28.1155C8.5388 28.289 7.85996 29.1089 7.86605 30.0627C7.86808 30.4615 8.00405 39.1028 14.1491 45.7329C10.9893 47.7989 7.32109 50.6377 3.15804 58.3085C2.51775 59.1872 4.12515 57.967 5.00288 58.6073C5.88162 59.2476 6.13289 60.3531 6.77317 59.4754C16.4725 43.3166 31.8183 42.978 39.7443 42.978C48.6403 42.978 69.8589 45.2042 74.759 65.8192C77.4236 77.0287 73.3526 91.2387 64.1339 102.906C56.8178 112.165 47.7006 117.692 39.7443 117.692C31.7879 117.692 22.6707 112.165 15.3546 102.906C6.13698 91.2387 2.06595 77.0277 4.73058 65.8181C4.95484 64.8724 6.41268 60.68 6.711 59.7891C7.05499 58.7582 5.91167 58.9129 4.88073 58.5689C3.85079 58.2239 3.39545 57.538 3.05045 58.5689C2.7156 59.5704 1.15271 63.8496 0.901057 64.9079C-2.03552 77.2611 2.31963 92.7557 12.2679 105.345C16.0741 110.163 20.4881 114.193 25.0309 116.996C30.0081 120.069 34.9589 121.627 39.7453 121.627C44.5307 121.627 49.4815 120.069 54.4586 116.996C59.0015 114.192 63.4155 110.163 67.2227 105.345C69.8285 102.046 72.0477 98.5467 73.8559 94.9576C77.8995 99.7136 82.7874 103.856 88.3581 106.711C93.2653 109.228 98.9467 110.842 104.486 109.974C112.618 108.703 120.567 102.149 126.294 91.9947C133.255 79.6527 134.937 65.531 130.682 55.1403C129.5 52.2524 127.509 47.5873 123.092 44.0018ZM104.548 21.7786C105.522 24.7415 106.88 31.3331 102.463 37.186C99.5474 37.1068 97.0126 37.3189 95.2612 37.529C95.2247 37.2367 95.1811 36.9181 95.1293 36.5751C94.9964 32.2839 96.1278 25.0297 104.548 21.7786ZM77.4723 26.013C87.2135 26.5701 90.276 34.1276 91.2156 38.1571C89.4865 38.4879 86.9802 39.0622 84.1735 40.0485C78.1298 35.7948 77.4337 29.1312 77.4723 26.013ZM67.5342 31.7238C67.1689 34.3965 65.936 39.7025 61.8102 43.7146C59.4936 42.5721 57.1131 41.6994 54.7752 41.0378C56.8026 38.6269 58.2344 35.8486 59.0522 32.7355C61.5657 31.7207 64.4079 31.3798 67.5342 31.7238ZM55.5576 22.4057C55.8853 24.2443 56.2019 27.4184 55.4459 30.909C54.6758 34.4696 52.9589 37.5249 50.3429 40.0049C47.1466 39.4092 44.1745 39.1576 41.7361 39.0754C42.0243 34.4737 44.0233 24.7446 55.5576 22.4057ZM23.9371 22.4057C35.4449 24.7344 37.4673 34.36 37.7514 39.0754C34.7346 39.1677 31.8488 39.4681 29.1162 39.9744C26.5175 37.5005 24.8118 34.4554 24.0446 30.908C23.2937 27.4427 23.6113 24.2535 23.9371 22.4057ZM11.9553 31.7238C15.0817 31.3798 17.9239 31.7207 20.4383 32.7355C21.2532 35.8374 22.6788 38.6076 24.6951 41.0125C22.1948 41.7258 19.8488 42.6259 17.6753 43.7106C13.5525 39.6974 12.3206 34.3935 11.9553 31.7238Z" fill="white"/>
</g>
<defs>
<clipPath id="clip0">
<rect width="133" height="133" fill="white"/>
</clipPath>
</defs>
</svg>
