<svg width="154" height="154" viewBox="0 0 154 154" fill="none" xmlns="http://www.w3.org/2000/svg">
<path d="M109.114 102.433L66.4145 30.7358C65.9663 29.9836 65.1551 29.5225 64.2795 29.5225L45.1869 29.5228C44.3113 29.5228 43.5001 29.9836 43.0519 30.7361L0.350098 102.432C-0.231611 103.409 -0.0764086 104.656 0.72818 105.46C12.0171 116.749 26.5661 122.835 41.3724 123.727L41.3697 123.744C44.4629 124.236 47.9213 124.477 51.6031 124.477C59.3699 124.477 68.1298 123.403 76.5478 121.347C90.4604 117.947 101.892 112.306 108.736 105.461C109.541 104.657 109.696 103.41 109.114 102.433ZM5.62549 103.285L11.1286 94.0465C14.245 96.8056 17.6636 99.1754 21.3359 101.097C21.7037 101.29 26.1117 103.5 26.5 103.5C27.3948 103.5 26.7824 101.977 27.2264 101.13C27.8628 99.9139 28.4421 98.9594 27.2264 98.3229C23.6341 96.4421 16.7198 92.4638 13.7189 89.6978L45.1872 36.8633L54.5956 52.66C55.2979 53.8391 56.8226 54.2256 58.0019 53.5233C59.181 52.8212 59.5678 51.296 58.8652 50.1172L49.559 34.4923L62.8674 34.492L94.5203 87.6399H81.2138L58.8652 50.1172C58.1628 48.9382 59.1807 52.8212 58.0019 53.5233C56.8229 54.2256 53.8933 51.4813 54.5956 52.66L76.6545 89.696C70.6684 95.2106 63.3769 99.0497 55.4477 100.837C47.1209 102.713 35.5 102.5 27.2264 98.3229C25.9243 97.8862 27.6625 99.8284 27.2264 101.13C26.7899 102.43 25.1991 103.064 26.5 103.5C31.8042 105.279 39.6308 106.949 45.1805 106.949C48.9836 106.949 52.7933 106.529 56.5401 105.685C64.9818 103.783 72.77 99.7797 79.2473 94.0495L84.7486 103.286C62.5452 124.075 27.8285 124.075 5.62549 103.285ZM75.3681 116.519C74.9654 116.617 74.5617 116.713 74.1575 116.807C79.4425 114.067 84.4159 110.527 88.8993 106.188H100.072C93.8306 110.506 85.3089 114.091 75.3681 116.519ZM89.3015 101.219L84.1738 92.6094H97.48L102.607 101.219H89.3015Z" fill="white"/>
<path d="M153.473 96.9104L110.773 25.2133C110.325 24.4611 109.513 24 108.638 24L89.5451 24.0003C88.6082 24.0003 87.7925 24.5188 87.3696 25.284L74.5 46C73.7977 47.1791 74.8209 47.2977 76 48C77.1791 48.7023 76.2977 51.1788 77 50L89.5455 31.3415L121.014 84.1742C118.139 86.8232 107.419 92.6619 104 94.5C102.791 95.1497 104.85 95.2912 105.5 96.5C105.948 97.3347 105.615 98.5 106.5 98.5C106.897 98.5 113.522 95.51 113.896 95.3085C117.378 93.4367 120.632 91.1595 123.606 88.5265L129.108 97.7628C117.605 108.519 102.134 114.161 86.3478 113.292C86.2699 113.285 86.1914 113.281 86.118 113.281C85.1835 113.281 84.3284 113.806 83.9043 114.639C83.4802 115.472 83.5593 116.472 84.1094 117.228C84.4962 117.76 85.0786 118.117 85.7285 118.22C88.8218 118.713 92.2801 118.954 95.9623 118.954C103.729 118.954 112.489 117.88 120.907 115.824C134.819 112.424 146.251 106.783 153.095 99.9381C153.899 99.1347 154.055 97.8874 153.473 96.9104ZM93.9176 28.9698L107.226 28.9695L138.879 82.1174H125.573L93.9176 28.9698ZM119.727 110.997C119.31 111.099 118.891 111.198 118.473 111.295C123.848 108.512 128.84 104.945 133.265 100.665H144.431C138.189 104.983 129.667 108.568 119.727 110.997ZM133.661 95.6962L128.533 87.0872H141.838L146.965 95.6962H133.661Z" fill="white"/>
<path d="M38.5132 65.9476C37.5925 65.3987 36.3867 65.5103 35.5854 66.2231C33.9173 67.7075 35.0019 70.564 37.2352 70.564C38.4491 70.564 39.5184 69.6457 39.6934 68.4429C39.8363 67.4605 39.3674 66.4568 38.5132 65.9476Z" fill="white"/>
<path d="M54.0993 75.2507C53.1528 74.6849 51.9102 74.8199 51.1108 75.5818C49.5214 77.0959 50.6277 79.867 52.8228 79.867C53.9965 79.867 55.0275 79.0119 55.2579 77.8659C55.4622 76.8481 54.9899 75.783 54.0993 75.2507Z" fill="white"/>
<path d="M103.578 81.5217C102.724 82.1867 102.4 83.3657 102.79 84.3746C103.155 85.3184 104.09 85.966 105.105 85.966C106.388 85.966 107.488 84.9415 107.582 83.6638C107.736 81.5559 105.244 80.2244 103.578 81.5217Z" fill="white"/>
<path d="M118.691 65.2521C117.071 66.7515 118.164 69.5604 120.377 69.5604C121.622 69.5604 122.685 68.6115 122.842 67.3816C123.128 65.1381 120.351 63.7148 118.691 65.2521Z" fill="white"/>
<path d="M94.5949 57.1472C93.698 57.8011 93.3353 59.0157 93.7389 60.0522C94.1083 61.0005 95.0359 61.6427 96.057 61.6427C97.1811 61.6427 98.1869 60.8562 98.4645 59.7691C99.027 57.5674 96.4336 55.8061 94.5949 57.1472Z" fill="white"/>
<path d="M75.3233 62.7168C74.3891 62.1273 73.1484 62.2328 72.3275 62.9743C70.6778 64.4637 71.7729 67.2977 73.996 67.2977C75.169 67.2977 76.2013 66.4474 76.4311 65.2999C76.6308 64.3016 76.1835 63.2591 75.3233 62.7168Z" fill="white"/>
<path d="M39.9717 88.2523C39.143 88.9074 38.8182 90.0444 39.1725 91.0391C39.5196 92.0136 40.4725 92.6879 41.5093 92.6879C42.6781 92.6879 43.7203 91.8361 43.9477 90.6869C44.3868 88.4674 41.7427 86.8531 39.9717 88.2523Z" fill="white"/>
</svg>
