<svg width="45" height="45" viewBox="0 0 45 45" fill="none" xmlns="http://www.w3.org/2000/svg">
<path d="M22.5056 0H22.4944C10.0884 0 0 10.0912 0 22.5C0 27.4219 1.58625 31.9837 4.28344 35.6878L1.47938 44.0466L10.1278 41.2819C13.6856 43.6388 17.9297 45 22.5056 45C34.9116 45 45 34.9059 45 22.5C45 10.0941 34.9116 0 22.5056 0Z" fill="#4CAF50"/>
<path d="M35.5976 31.7728C35.0547 33.3056 32.9004 34.5768 31.1819 34.9481C30.0063 35.1984 28.4707 35.3981 23.3013 33.255C16.6891 30.5156 12.431 23.7965 12.0991 23.3606C11.7813 22.9246 9.42725 19.8028 9.42725 16.574C9.42725 13.3453 11.0669 11.7731 11.7279 11.0981C12.2707 10.544 13.1679 10.2909 14.0285 10.2909C14.3069 10.2909 14.5572 10.305 14.7822 10.3162C15.4432 10.3443 15.7751 10.3837 16.211 11.4271C16.7538 12.735 18.0757 15.9637 18.2332 16.2956C18.3935 16.6275 18.5538 17.0775 18.3288 17.5134C18.1179 17.9634 17.9322 18.1631 17.6004 18.5456C17.2685 18.9281 16.9535 19.2206 16.6216 19.6312C16.3179 19.9884 15.9747 20.3709 16.3572 21.0318C16.7397 21.6787 18.0616 23.8359 20.0079 25.5684C22.5194 27.8043 24.5557 28.5187 25.2841 28.8225C25.8269 29.0475 26.4738 28.994 26.8704 28.5721C27.3738 28.0293 27.9954 27.1293 28.6282 26.2434C29.0782 25.6078 29.6463 25.529 30.2426 25.754C30.8501 25.965 34.0647 27.554 34.7257 27.8831C35.3866 28.215 35.8226 28.3725 35.9829 28.6509C36.1404 28.9293 36.1404 30.2371 35.5976 31.7728Z" fill="#FAFAFA"/>
</svg>
